{"title":"Chashme Baddor 2013 HD CAM (M2Tv) - Hindi","uid":8345400,"size":745809920,"categoryP":"video","categoryS":"movies","magnet":"?xt=urn:btih:2f8ed2ef49838fec6dd80124ac842b65ca754b4a&amp;dn=Chashme+Baddor+2013+HD+CAM+%28M2Tv%29+-+Hindi&amp;tr=udp%3A%2F%2Ftracker.openbittorrent.com%3A80&amp;tr=udp%3A%2F%2Fopen.demonii.com%3A1337&amp;tr=udp%3A%2F%2Ftracker.coppersurfer.tk%3A6969&amp;tr=udp%3A%2F%2Fexodus.desync.com%3A6969","seeders":1,"leechers":0,"uploader":"SJonam","files":7,"time":1365189327,"description":" &lt;a href=&quot;http://desibbrg.org/images/66952052392581364616.gif&quot; rel=&quot;nofollow&quot; target=&quot;_NEW&quot;&gt;http://desibbrg.org/images/66952052392581364616.gif&lt;/a&gt; &lt;a href=&quot;\nhttp://desibbrg.org/images/50103775576814531961.jpg&quot; rel=&quot;nofollow&quot; target=&quot;_NEW&quot;&gt;\nhttp://desibbrg.org/images/50103775576814531961.jpg&lt;/a&gt; &lt;a href=&quot;\nhttp://desibbrg.org/images/91340651741372895147.jpg&quot; rel=&quot;nofollow&quot; target=&quot;_NEW&quot;&gt;\nhttp://desibbrg.org/images/91340651741372895147.jpg&lt;/a&gt;\n\nMedia Info - \nVideo\nID : 224 (0xE0)\nFormat : MPEG Video\nFormat version : Version 2\nFormat profile : Main@Main\nFormat settings, BVOP : Yes\nFormat settings, Matrix : Default\nFormat settings, GOP : M=3, N=13\nDuration : 1h 52mn\nBit rate mode : Variable\nBit rate : 738 Kbps\nMaximum bit rate : 9 672 Kbps\nWidth : 352 pixels\nHeight : 288 pixels\nDisplay aspect ratio : 4:3\nFrame rate : 25.000 fps\nStandard : PAL\nColor space : YUV\nChroma subsampling : 4:2:0\nBit depth : 8 bits\nScan type : Progressive\nCompression mode : Lossy\nBits/(Pixel*Frame) : 0.291\nStream size : 594 MiB (84%)\n\nAudio\nID : 192 (0xC0)\nFormat : MPEG Audio\nFormat version : Version 1\nFormat profile : Layer 2\nDuration : 1h 52mn\nBit rate mode : Constant\nBit rate : 128 Kbps\nChannel(s) : 2 channels\nSampling rate : 48.0 KHz\nCompression mode : Lossy\nStream size : 103 MiB (14%)\n\nRipper : CryMe.007\n\nSeeding 24x7... Extreme Seeding...\n\n\nEnjoy!\n","torrent":{"xt":"urn:btih:2f8ed2ef49838fec6dd80124ac842b65ca754b4a","amp;dn":"Chashme+Baddor+2013+HD+CAM+%28M2Tv%29+-+Hindi","amp;tr":["udp%3A%2F%2Ftracker.openbittorrent.com%3A80","udp%3A%2F%2Fopen.demonii.com%3A1337","udp%3A%2F%2Ftracker.coppersurfer.tk%3A6969","udp%3A%2F%2Fexodus.desync.com%3A6969"],"infoHash":"2f8ed2ef49838fec6dd80124ac842b65ca754b4a","infoHashBuffer":{"type":"Buffer","data":[47,142,210,239,73,131,143,236,109,216,1,36,172,132,43,101,202,117,75,74]},"announce":[],"urlList":[]}}